<svg xmlns="http://www.w3.org/2000/svg" viewBox="0 0 200 240" width="200" height="240">
  <defs>
    <radialGradient id="slimeGlow" cx="50%" cy="45%" r="50%">
      <stop offset="0%" stop-color="#a7f3d0" stop-opacity="0.6"/>
      <stop offset="100%" stop-color="#10b981" stop-opacity="0"/>
    </radialGradient>
  </defs>
  <!-- 光晕 -->
  <ellipse cx="100" cy="130" rx="85" ry="95" fill="url(#slimeGlow)" opacity="0.5"/>
  <!-- 身体 -->
  <path d="M50 150 Q40 80 100 60 Q160 80 150 150 Q140 180 100 180 Q60 180 50 150" fill="#6ee7b7" stroke="#10b981" stroke-width="3"/>
  <!-- 眼睛 -->
  <ellipse cx="80" cy="110" rx="12" ry="18" fill="#ffffff"/>
  <ellipse cx="80" cy="110" rx="6" ry="10" fill="#064e3b"/>
  <ellipse cx="120" cy="110" rx="12" ry="18" fill="#ffffff"/>
  <ellipse cx="120" cy="110" rx="6" ry="10" fill="#064e3b"/>
  <!-- 高光 -->
  <ellipse cx="70" cy="85" rx="20" ry="10" fill="#ffffff" opacity="0.3"/>
  <!-- 嘴巴 -->
  <path d="M85 140 Q100 155 115 140" fill="none" stroke="#064e3b" stroke-width="2" stroke-linecap="round"/>
  <!-- 黏液滴 -->
  <ellipse cx="60" cy="175" rx="8" ry="15" fill="#6ee7b7" opacity="0.8"/>
  <ellipse cx="140" cy="175" rx="6" ry="12" fill="#6ee7b7" opacity="0.8"/>
  <!-- 底部阴影 -->
  <ellipse cx="100" cy="185" rx="50" ry="8" fill="#0a0e1a" opacity="0.3"/>
</svg>