<svg xmlns="http://www.w3.org/2000/svg" viewBox="0 0 200 240" width="200" height="240">
  <defs>
    <radialGradient id="divineGlow" cx="50%" cy="45%" r="55%">
      <stop offset="0%" stop-color="#c4b5fd" stop-opacity="0.9"/>
      <stop offset="50%" stop-color="#a78bfa" stop-opacity="0.5"/>
      <stop offset="100%" stop-color="#7c3aed" stop-opacity="0"/>
    </radialGradient>
    <radialGradient id="bodyDivine" cx="40%" cy="30%" r="70%">
      <stop offset="0%" stop-color="#ddd6fe"/>
      <stop offset="40%" stop-color="#c4b5fd"/>
      <stop offset="100%" stop-color="#8b5cf6"/>
    </radialGradient>
    <linearGradient id="wingGrad" x1="0%" y1="0%" x2="100%" y2="100%">
      <stop offset="0%" stop-color="#ddd6fe"/>
      <stop offset="100%" stop-color="#a78bfa"/>
    </linearGradient>
  </defs>
  <!-- 神圣光晕 -->
  <ellipse cx="100" cy="120" rx="95" ry="105" fill="url(#divineGlow)" opacity="0.7"/>
  <!-- 翅膀 -->
  <path d="M45 95 Q10 55 30 125 Q40 105 45 95" fill="url(#wingGrad)" stroke="#7c3aed" stroke-width="2" opacity="0.9"/>
  <path d="M155 95 Q190 55 170 125 Q160 105 155 95" fill="url(#wingGrad)" stroke="#7c3aed" stroke-width="2" opacity="0.9"/>
  <!-- 身体 -->
  <ellipse cx="100" cy="125" rx="55" ry="50" fill="url(#bodyDivine)" stroke="#7c3aed" stroke-width="3"/>
  <!-- 头部 -->
  <ellipse cx="100" cy="85" rx="38" ry="33" fill="url(#bodyDivine)" stroke="#7c3aed" stroke-width="3"/>
  <!-- 光环 -->
  <ellipse cx="100" cy="55" rx="35" ry="8" fill="none" stroke="#fbbf24" stroke-width="3" opacity="0.9"/>
  <ellipse cx="100" cy="55" rx="25" ry="5" fill="none" stroke="#f59e0b" stroke-width="2" opacity="0.7"/>
  <!-- 角/冠 -->
  <path d="M75 58 L68 30 L82 56" fill="#fbbf24" stroke="#d97706" stroke-width="1"/>
  <path d="M125 58 L132 30 L118 56" fill="#fbbf24" stroke="#d97706" stroke-width="1"/>
  <path d="M95 52 L100 20 L105 52" fill="#fbbf24" stroke="#d97706" stroke-width="1"/>
  <!-- 星星 -->
  <path d="M100 25 L102 31 L108 33 L102 35 L100 41 L98 35 L92 33 L98 31 Z" fill="#fbbf24"/>
  <!-- 眼睛 -->
  <ellipse cx="88" cy="82" rx="9" ry="11" fill="#ffffff"/>
  <circle cx="88" cy="82" r="5" fill="#5b21b6"/>
  <circle cx="89" cy="80" r="2" fill="#ffffff"/>
  <ellipse cx="112" cy="82" rx="9" ry="11" fill="#ffffff"/>
  <circle cx="112" cy="82" r="5" fill="#5b21b6"/>
  <circle cx="113" cy="80" r="2" fill="#ffffff"/>
  <!-- 微笑 -->
  <path d="M88 100 Q100 112 112 100" fill="none" stroke="#5b21b6" stroke-width="2" stroke-linecap="round"/>
  <!-- 飘带/光环装饰 -->
  <circle cx="50" cy="60" r="3" fill="#fbbf24" opacity="0.8"/>
  <circle cx="150" cy="70" r="4" fill="#fbbf24" opacity="0.6"/>
  <circle cx="160" cy="140" r="3" fill="#fbbf24" opacity="0.7"/>
  <circle cx="40" cy="150" r="2" fill="#fbbf24" opacity="0.9"/>
  <circle cx="100" cy="30" r="2" fill="#fbbf24" opacity="0.8"/>
  <!-- 底部星光 -->
  <ellipse cx="100" cy="180" rx="50" ry="8" fill="#7c3aed" opacity="0.3"/>
  <path d="M85 175 L87 181 L93 183 L87 185 L85 191 L83 185 L77 183 L83 181 Z" fill="#fbbf24" opacity="0.7"/>
  <path d="M115 175 L117 180 L122 181 L117 183 L115 188 L113 183 L108 181 L113 180 Z" fill="#fbbf24" opacity="0.5"/>
</svg>